<svg width="60" height="60" viewBox="0 0 60 60" fill="none" xmlns="http://www.w3.org/2000/svg">
<g clip-path="url(#clip0_445_712)">
<circle cx="30" cy="30" r="30" fill="#C8C7CC"/>
<mask id="mask0_445_712" style="mask-type:alpha" maskUnits="userSpaceOnUse" x="0" y="0" width="60" height="60">
<circle cx="30" cy="30" r="30" fill="white"/>
</mask>
<g mask="url(#mask0_445_712)">
<path d="M17.2715 33.8926C17.2715 34.2015 17.2122 34.4914 17.0938 34.7622C16.9795 35.033 16.8208 35.27 16.6177 35.4731C16.4146 35.6763 16.1776 35.8371 15.9067 35.9556C15.6359 36.0698 15.346 36.127 15.0371 36.127H14.6436C14.3346 36.127 14.0448 36.0698 13.7739 35.9556C13.5031 35.8371 13.2661 35.6763 13.063 35.4731C12.8599 35.27 12.6991 35.033 12.5806 34.7622C12.4663 34.4914 12.4092 34.2015 12.4092 33.8926V29.0049C12.4092 28.696 12.4663 28.4061 12.5806 28.1353C12.6991 27.8644 12.8599 27.6274 13.063 27.4243C13.2661 27.2212 13.5031 27.0625 13.7739 26.9482C14.0448 26.8298 14.3346 26.7705 14.6436 26.7705H15.0371C15.346 26.7705 15.6359 26.8298 15.9067 26.9482C16.1776 27.0625 16.4146 27.2212 16.6177 27.4243C16.8208 27.6274 16.9795 27.8644 17.0938 28.1353C17.2122 28.4061 17.2715 28.696 17.2715 29.0049V29.2397L16.4526 29.373V29.0049C16.4526 28.8018 16.4146 28.6134 16.3384 28.4399C16.2622 28.2622 16.1564 28.1077 16.021 27.9766C15.8898 27.8454 15.7354 27.7417 15.5576 27.6655C15.3841 27.5894 15.1958 27.5513 14.9927 27.5513H14.6816C14.4785 27.5513 14.2881 27.5894 14.1104 27.6655C13.9368 27.7417 13.7845 27.8454 13.6533 27.9766C13.5221 28.1077 13.4185 28.2622 13.3423 28.4399C13.2661 28.6134 13.228 28.8018 13.228 29.0049V31.271C13.4354 31.0425 13.6829 30.8605 13.9707 30.7251C14.2627 30.5854 14.5737 30.5156 14.9038 30.5156H15.0371C15.346 30.5156 15.6359 30.5749 15.9067 30.6934C16.1776 30.8076 16.4146 30.9663 16.6177 31.1694C16.8208 31.3726 16.9795 31.6095 17.0938 31.8804C17.2122 32.1512 17.2715 32.4411 17.2715 32.75V33.8926ZM16.4526 32.75C16.4526 32.5469 16.4146 32.3586 16.3384 32.1851C16.2622 32.0073 16.1564 31.8529 16.021 31.7217C15.8898 31.5905 15.7354 31.4868 15.5576 31.4106C15.3841 31.3345 15.1958 31.2964 14.9927 31.2964H14.6816C14.4785 31.2964 14.2881 31.3345 14.1104 31.4106C13.9368 31.4868 13.7845 31.5905 13.6533 31.7217C13.5221 31.8529 13.4185 32.0073 13.3423 32.1851C13.2661 32.3586 13.228 32.5469 13.228 32.75V33.8926C13.228 34.0957 13.2661 34.2861 13.3423 34.4639C13.4185 34.6374 13.5221 34.7918 13.6533 34.9272C13.7845 35.0584 13.9368 35.1621 14.1104 35.2383C14.2881 35.3145 14.4785 35.3525 14.6816 35.3525H14.9927C15.1958 35.3525 15.3841 35.3145 15.5576 35.2383C15.7354 35.1621 15.8898 35.0584 16.021 34.9272C16.1564 34.7918 16.2622 34.6374 16.3384 34.4639C16.4146 34.2861 16.4526 34.0957 16.4526 33.8926V32.75ZM23.8286 33.8926C23.8286 34.2015 23.7694 34.4914 23.6509 34.7622C23.5366 35.033 23.3779 35.27 23.1748 35.4731C22.9717 35.6763 22.7347 35.8371 22.4639 35.9556C22.193 36.0698 21.9032 36.127 21.5942 36.127H21.207C20.8981 36.127 20.6061 36.0698 20.3311 35.9556C20.0602 35.8371 19.8232 35.6763 19.6201 35.4731C19.417 35.27 19.2562 35.033 19.1377 34.7622C19.0234 34.4914 18.9663 34.2015 18.9663 33.8926V29.0049C18.9663 28.696 19.0234 28.4061 19.1377 28.1353C19.2562 27.8644 19.417 27.6274 19.6201 27.4243C19.8232 27.2212 20.0602 27.0625 20.3311 26.9482C20.6061 26.8298 20.8981 26.7705 21.207 26.7705H21.5942C21.9032 26.7705 22.193 26.8298 22.4639 26.9482C22.7347 27.0625 22.9717 27.2212 23.1748 27.4243C23.3779 27.6274 23.5366 27.8644 23.6509 28.1353C23.7694 28.4061 23.8286 28.696 23.8286 29.0049V33.8926ZM23.0098 29.0049C23.0098 28.8018 22.9717 28.6134 22.8955 28.4399C22.8193 28.2622 22.7157 28.1077 22.5845 27.9766C22.4533 27.8454 22.2988 27.7417 22.1211 27.6655C21.9476 27.5894 21.7593 27.5513 21.5562 27.5513H21.2451C21.042 27.5513 20.8516 27.5894 20.6738 27.6655C20.5003 27.7417 20.3459 27.8454 20.2104 27.9766C20.0793 28.1077 19.9756 28.2622 19.8994 28.4399C19.8232 28.6134 19.7852 28.8018 19.7852 29.0049V33.8926C19.7852 34.0957 19.8232 34.2861 19.8994 34.4639C19.9756 34.6374 20.0793 34.7918 20.2104 34.9272C20.3459 35.0584 20.5003 35.1621 20.6738 35.2383C20.8516 35.3145 21.042 35.3525 21.2451 35.3525H21.5562C21.7593 35.3525 21.9476 35.3145 22.1211 35.2383C22.2988 35.1621 22.4533 35.0584 22.5845 34.9272C22.7157 34.7918 22.8193 34.6374 22.8955 34.4639C22.9717 34.2861 23.0098 34.0957 23.0098 33.8926V29.0049ZM31.8901 36L30.5 33.5054L29.1099 36H28.2656L30.0874 32.75L28.2656 29.5H29.1099L30.5 31.9946L31.8901 29.5H32.7344L30.9189 32.75L32.7344 36H31.8901ZM42.1543 33.8926C42.1543 34.2015 42.0951 34.4914 41.9766 34.7622C41.8623 35.033 41.7036 35.27 41.5005 35.4731C41.2974 35.6763 41.0604 35.8371 40.7896 35.9556C40.5187 36.0698 40.2288 36.127 39.9199 36.127H39.5264C39.2174 36.127 38.9276 36.0698 38.6567 35.9556C38.3859 35.8371 38.1489 35.6763 37.9458 35.4731C37.7427 35.27 37.5819 35.033 37.4634 34.7622C37.3491 34.4914 37.292 34.2015 37.292 33.8926V29.0049C37.292 28.696 37.3491 28.4061 37.4634 28.1353C37.5819 27.8644 37.7427 27.6274 37.9458 27.4243C38.1489 27.2212 38.3859 27.0625 38.6567 26.9482C38.9276 26.8298 39.2174 26.7705 39.5264 26.7705H39.9199C40.2288 26.7705 40.5187 26.8298 40.7896 26.9482C41.0604 27.0625 41.2974 27.2212 41.5005 27.4243C41.7036 27.6274 41.8623 27.8644 41.9766 28.1353C42.0951 28.4061 42.1543 28.696 42.1543 29.0049V29.2397L41.3354 29.373V29.0049C41.3354 28.8018 41.2974 28.6134 41.2212 28.4399C41.145 28.2622 41.0392 28.1077 40.9038 27.9766C40.7726 27.8454 40.6182 27.7417 40.4404 27.6655C40.2669 27.5894 40.0786 27.5513 39.8755 27.5513H39.5645C39.3613 27.5513 39.1709 27.5894 38.9932 27.6655C38.8197 27.7417 38.6673 27.8454 38.5361 27.9766C38.4049 28.1077 38.3013 28.2622 38.2251 28.4399C38.1489 28.6134 38.1108 28.8018 38.1108 29.0049V31.271C38.3182 31.0425 38.5658 30.8605 38.8535 30.7251C39.1455 30.5854 39.4565 30.5156 39.7866 30.5156H39.9199C40.2288 30.5156 40.5187 30.5749 40.7896 30.6934C41.0604 30.8076 41.2974 30.9663 41.5005 31.1694C41.7036 31.3726 41.8623 31.6095 41.9766 31.8804C42.0951 32.1512 42.1543 32.4411 42.1543 32.75V33.8926ZM41.3354 32.75C41.3354 32.5469 41.2974 32.3586 41.2212 32.1851C41.145 32.0073 41.0392 31.8529 40.9038 31.7217C40.7726 31.5905 40.6182 31.4868 40.4404 31.4106C40.2669 31.3345 40.0786 31.2964 39.8755 31.2964H39.5645C39.3613 31.2964 39.1709 31.3345 38.9932 31.4106C38.8197 31.4868 38.6673 31.5905 38.5361 31.7217C38.4049 31.8529 38.3013 32.0073 38.2251 32.1851C38.1489 32.3586 38.1108 32.5469 38.1108 32.75V33.8926C38.1108 34.0957 38.1489 34.2861 38.2251 34.4639C38.3013 34.6374 38.4049 34.7918 38.5361 34.9272C38.6673 35.0584 38.8197 35.1621 38.9932 35.2383C39.1709 35.3145 39.3613 35.3525 39.5645 35.3525H39.8755C40.0786 35.3525 40.2669 35.3145 40.4404 35.2383C40.6182 35.1621 40.7726 35.0584 40.9038 34.9272C41.0392 34.7918 41.145 34.6374 41.2212 34.4639C41.2974 34.2861 41.3354 34.0957 41.3354 33.8926V32.75ZM48.7114 33.8926C48.7114 34.2015 48.6522 34.4914 48.5337 34.7622C48.4194 35.033 48.2607 35.27 48.0576 35.4731C47.8545 35.6763 47.6175 35.8371 47.3467 35.9556C47.0758 36.0698 46.786 36.127 46.4771 36.127H46.0898C45.7809 36.127 45.4889 36.0698 45.2139 35.9556C44.943 35.8371 44.7061 35.6763 44.5029 35.4731C44.2998 35.27 44.139 35.033 44.0205 34.7622C43.9062 34.4914 43.8491 34.2015 43.8491 33.8926V29.0049C43.8491 28.696 43.9062 28.4061 44.0205 28.1353C44.139 27.8644 44.2998 27.6274 44.5029 27.4243C44.7061 27.2212 44.943 27.0625 45.2139 26.9482C45.4889 26.8298 45.7809 26.7705 46.0898 26.7705H46.4771C46.786 26.7705 47.0758 26.8298 47.3467 26.9482C47.6175 27.0625 47.8545 27.2212 48.0576 27.4243C48.2607 27.6274 48.4194 27.8644 48.5337 28.1353C48.6522 28.4061 48.7114 28.696 48.7114 29.0049V33.8926ZM47.8926 29.0049C47.8926 28.8018 47.8545 28.6134 47.7783 28.4399C47.7021 28.2622 47.5985 28.1077 47.4673 27.9766C47.3361 27.8454 47.1816 27.7417 47.0039 27.6655C46.8304 27.5894 46.6421 27.5513 46.439 27.5513H46.1279C45.9248 27.5513 45.7344 27.5894 45.5566 27.6655C45.3831 27.7417 45.2287 27.8454 45.0933 27.9766C44.9621 28.1077 44.8584 28.2622 44.7822 28.4399C44.7061 28.6134 44.668 28.8018 44.668 29.0049V33.8926C44.668 34.0957 44.7061 34.2861 44.7822 34.4639C44.8584 34.6374 44.9621 34.7918 45.0933 34.9272C45.2287 35.0584 45.3831 35.1621 45.5566 35.2383C45.7344 35.3145 45.9248 35.3525 46.1279 35.3525H46.439C46.6421 35.3525 46.8304 35.3145 47.0039 35.2383C47.1816 35.1621 47.3361 35.0584 47.4673 34.9272C47.5985 34.7918 47.7021 34.6374 47.7783 34.4639C47.8545 34.2861 47.8926 34.0957 47.8926 33.8926V29.0049Z" fill="#8A8A8F"/>
</g>
</g>
<defs>
<clipPath id="clip0_445_712">
<rect width="60" height="60" fill="white"/>
</clipPath>
</defs>
</svg>
