<svg width="75" height="49" viewBox="0 0 75 49" fill="none" xmlns="http://www.w3.org/2000/svg">
<g clip-path="url(#clip0_457_1683)">
<path d="M24.6289 44.3691H22.4121L21.9531 46H21.2988L23.3496 38.998H23.6816L25.7422 46H25.0928L24.6289 44.3691ZM22.583 43.7686H24.4629L23.54 40.541L23.5205 40.2822L23.501 40.541L22.583 43.7686ZM29.5801 46L29.248 45.4922C29.1113 45.6777 28.9404 45.8258 28.7354 45.9365C28.5303 46.0439 28.3057 46.0977 28.0615 46.0977H27.9102C27.7083 46.0977 27.5179 46.0602 27.3389 45.9854C27.1598 45.9072 27.0036 45.8014 26.8701 45.668C26.7367 45.5345 26.6309 45.3783 26.5527 45.1992C26.4779 45.0202 26.4404 44.8298 26.4404 44.6279V42.3721C26.4404 42.1702 26.4779 41.9798 26.5527 41.8008C26.6309 41.6217 26.7367 41.4655 26.8701 41.332C27.0036 41.1986 27.1598 41.0944 27.3389 41.0195C27.5179 40.9414 27.7083 40.9023 27.9102 40.9023H28.0615C28.2861 40.9023 28.4945 40.9479 28.6865 41.0391C28.8786 41.1302 29.043 41.2572 29.1797 41.4199V38.998H29.7803V46H29.5801ZM29.1797 42.3379C29.1797 42.2174 29.1569 42.1051 29.1113 42.001C29.0658 41.8936 29.0039 41.8008 28.9258 41.7227C28.8477 41.6445 28.7549 41.5827 28.6475 41.5371C28.5433 41.4915 28.431 41.4688 28.3105 41.4688H27.9102C27.7897 41.4688 27.6758 41.4915 27.5684 41.5371C27.4642 41.5827 27.373 41.6445 27.2949 41.7227C27.2168 41.8008 27.1549 41.8936 27.1094 42.001C27.0638 42.1051 27.041 42.2174 27.041 42.3379V44.6621C27.041 44.7826 27.0638 44.8965 27.1094 45.0039C27.1549 45.1081 27.2168 45.1992 27.2949 45.2773C27.373 45.3555 27.4642 45.4173 27.5684 45.4629C27.6758 45.5085 27.7897 45.5312 27.9102 45.5312H28.3105C28.431 45.5312 28.5433 45.5085 28.6475 45.4629C28.7549 45.4173 28.8477 45.3555 28.9258 45.2773C29.0039 45.1992 29.0658 45.1081 29.1113 45.0039C29.1569 44.8965 29.1797 44.7826 29.1797 44.6621V42.3379ZM34.1211 46L33.7891 45.4922C33.6523 45.6777 33.4814 45.8258 33.2764 45.9365C33.0713 46.0439 32.8467 46.0977 32.6025 46.0977H32.4512C32.2493 46.0977 32.0589 46.0602 31.8799 45.9854C31.7008 45.9072 31.5446 45.8014 31.4111 45.668C31.2777 45.5345 31.1719 45.3783 31.0938 45.1992C31.0189 45.0202 30.9814 44.8298 30.9814 44.6279V42.3721C30.9814 42.1702 31.0189 41.9798 31.0938 41.8008C31.1719 41.6217 31.2777 41.4655 31.4111 41.332C31.5446 41.1986 31.7008 41.0944 31.8799 41.0195C32.0589 40.9414 32.2493 40.9023 32.4512 40.9023H32.6025C32.8271 40.9023 33.0355 40.9479 33.2275 41.0391C33.4196 41.1302 33.584 41.2572 33.7207 41.4199V38.998H34.3213V46H34.1211ZM33.7207 42.3379C33.7207 42.2174 33.6979 42.1051 33.6523 42.001C33.6068 41.8936 33.5449 41.8008 33.4668 41.7227C33.3887 41.6445 33.2959 41.5827 33.1885 41.5371C33.0843 41.4915 32.972 41.4688 32.8516 41.4688H32.4512C32.3307 41.4688 32.2168 41.4915 32.1094 41.5371C32.0052 41.5827 31.9141 41.6445 31.8359 41.7227C31.7578 41.8008 31.696 41.8936 31.6504 42.001C31.6048 42.1051 31.582 42.2174 31.582 42.3379V44.6621C31.582 44.7826 31.6048 44.8965 31.6504 45.0039C31.696 45.1081 31.7578 45.1992 31.8359 45.2773C31.9141 45.3555 32.0052 45.4173 32.1094 45.4629C32.2168 45.5085 32.3307 45.5312 32.4512 45.5312H32.8516C32.972 45.5312 33.0843 45.5085 33.1885 45.4629C33.2959 45.4173 33.3887 45.3555 33.4668 45.2773C33.5449 45.1992 33.6068 45.1081 33.6523 45.0039C33.6979 44.8965 33.7207 44.7826 33.7207 44.6621V42.3379ZM41.6357 46L38.7158 40.9023L38.6572 40.5996V46H38.0273V38.998H38.3545L41.2744 44.1006L41.3379 44.3984V38.998H41.9678V46H41.6357ZM46.6162 44.6279C46.6162 44.8298 46.5771 45.0202 46.499 45.1992C46.4242 45.3783 46.32 45.5345 46.1865 45.668C46.0531 45.8014 45.8968 45.9072 45.7178 45.9854C45.5387 46.0602 45.3483 46.0977 45.1465 46.0977H44.7461C44.5443 46.0977 44.3538 46.0602 44.1748 45.9854C43.9958 45.9072 43.8395 45.8014 43.7061 45.668C43.5726 45.5345 43.4668 45.3783 43.3887 45.1992C43.3138 45.0202 43.2764 44.8298 43.2764 44.6279V42.3721C43.2764 42.1702 43.3138 41.9798 43.3887 41.8008C43.4668 41.6217 43.5726 41.4655 43.7061 41.332C43.8395 41.1986 43.9958 41.0944 44.1748 41.0195C44.3538 40.9414 44.5443 40.9023 44.7461 40.9023H45.1465C45.3483 40.9023 45.5387 40.9414 45.7178 41.0195C45.8968 41.0944 46.0531 41.1986 46.1865 41.332C46.32 41.4655 46.4242 41.6217 46.499 41.8008C46.5771 41.9798 46.6162 42.1702 46.6162 42.3721V43.5488H43.877V44.6621C43.877 44.7826 43.8997 44.8965 43.9453 45.0039C43.9909 45.1081 44.0527 45.1992 44.1309 45.2773C44.209 45.3555 44.3001 45.4173 44.4043 45.4629C44.5117 45.5085 44.6257 45.5312 44.7461 45.5312H45.1465C45.2669 45.5312 45.3792 45.5085 45.4834 45.4629C45.5908 45.4173 45.6836 45.3555 45.7617 45.2773C45.8398 45.1992 45.9017 45.1081 45.9473 45.0039C45.9928 44.8965 46.0156 44.7826 46.0156 44.6621V44.3301L46.6162 44.4277V44.6279ZM46.0156 42.3379C46.0156 42.2174 45.9928 42.1051 45.9473 42.001C45.9017 41.8936 45.8398 41.8008 45.7617 41.7227C45.6836 41.6445 45.5908 41.5827 45.4834 41.5371C45.3792 41.4915 45.2669 41.4688 45.1465 41.4688H44.7461C44.6257 41.4688 44.5117 41.4915 44.4043 41.5371C44.3001 41.5827 44.209 41.6445 44.1309 41.7227C44.0527 41.8008 43.9909 41.8936 43.9453 42.001C43.8997 42.1051 43.877 42.2174 43.877 42.3379V43.0801H46.0156V42.3379ZM52.0264 46H51.6992L50.5273 42.2305L50.5078 41.9717L50.4883 42.2305L49.3164 46H48.9844L47.3145 41H47.9248L49.1162 44.7793L49.1357 45.0381L49.1553 44.7793L50.3271 41H50.6885L51.8555 44.7793L51.875 45.0381L51.8945 44.7793L53.0859 41H53.6963L52.0264 46Z" fill="#8A8A8F"/>
<path fill-rule="evenodd" clip-rule="evenodd" d="M38 32C44.6274 32 50 26.6274 50 20C50 13.3726 44.6274 8 38 8C31.3726 8 26 13.3726 26 20C26 26.6274 31.3726 32 38 32ZM42.249 19.249H38.751C38.751 19.249 38.7515 15.9141 38.751 15.751C38.7515 15.3362 38.4153 15 38 15C37.5852 14.9995 37.249 15.3357 37.249 15.751V19.249C37.249 19.249 33.9141 19.2485 33.751 19.249C33.3362 19.2485 33 19.5847 33 20C32.9995 20.4148 33.3357 20.751 33.751 20.751H37.249C37.249 20.751 37.2485 24.0859 37.249 24.249C37.2485 24.6638 37.5847 25 38 25C38.4148 25.0005 38.751 24.6643 38.751 24.249V20.751C38.751 20.751 42.0859 20.7515 42.249 20.751C42.6638 20.7515 43 20.4153 43 20C43.0005 19.5852 42.6643 19.249 42.249 19.249Z" fill="#C8C7CC"/>
</g>
<defs>
<clipPath id="clip0_457_1683">
<rect width="75" height="49" fill="white"/>
</clipPath>
</defs>
</svg>
