<svg width="75" height="49" viewBox="0 0 75 49" fill="none" xmlns="http://www.w3.org/2000/svg">
<g clip-path="url(#clip0_450_1509)">
<path d="M25.625 44.3789C25.625 44.6165 25.5794 44.8395 25.4883 45.0479C25.4004 45.2562 25.2783 45.4385 25.1221 45.5947C24.9658 45.751 24.7835 45.8747 24.5752 45.9658C24.3669 46.0537 24.1439 46.0977 23.9062 46.0977H23.4082C23.1706 46.0977 22.946 46.0537 22.7344 45.9658C22.526 45.8747 22.3438 45.751 22.1875 45.5947C22.0312 45.4385 21.9076 45.2562 21.8164 45.0479C21.7285 44.8395 21.6846 44.6165 21.6846 44.3789V40.6191C21.6846 40.3815 21.7285 40.1585 21.8164 39.9502C21.9076 39.7419 22.0312 39.5596 22.1875 39.4033C22.3438 39.2471 22.526 39.125 22.7344 39.0371C22.946 38.946 23.1706 38.9004 23.4082 38.9004H23.9062C24.1439 38.9004 24.3669 38.946 24.5752 39.0371C24.7835 39.125 24.9658 39.2471 25.1221 39.4033C25.2783 39.5596 25.4004 39.7419 25.4883 39.9502C25.5794 40.1585 25.625 40.3815 25.625 40.6191V40.9023L24.9951 41V40.6191C24.9951 40.4629 24.9658 40.318 24.9072 40.1846C24.8486 40.0479 24.7689 39.929 24.668 39.8281C24.5671 39.7272 24.4482 39.6475 24.3115 39.5889C24.1781 39.5303 24.0332 39.501 23.877 39.501H23.4375C23.2812 39.501 23.1348 39.5303 22.998 39.5889C22.8646 39.6475 22.7458 39.7272 22.6416 39.8281C22.5407 39.929 22.4609 40.0479 22.4023 40.1846C22.3438 40.318 22.3145 40.4629 22.3145 40.6191V44.3789C22.3145 44.5352 22.3438 44.6816 22.4023 44.8184C22.4609 44.9518 22.5407 45.0706 22.6416 45.1748C22.7458 45.2757 22.8646 45.3555 22.998 45.4141C23.1348 45.4727 23.2812 45.502 23.4375 45.502H23.877C24.0332 45.502 24.1781 45.4727 24.3115 45.4141C24.4482 45.3555 24.5671 45.2757 24.668 45.1748C24.7689 45.0706 24.8486 44.9518 24.9072 44.8184C24.9658 44.6816 24.9951 44.5352 24.9951 44.3789V43.998L25.625 44.1006V44.3789ZM29.9707 46L29.6387 45.502C29.502 45.681 29.3311 45.8258 29.126 45.9365C28.9209 46.0439 28.6963 46.0977 28.4521 46.0977H28.3008C28.099 46.0977 27.9085 46.0602 27.7295 45.9854C27.5505 45.9072 27.3942 45.8014 27.2607 45.668C27.1273 45.5345 27.0215 45.3783 26.9434 45.1992C26.8685 45.0202 26.8311 44.8298 26.8311 44.6279V44.5791C26.8311 44.3773 26.8685 44.1868 26.9434 44.0078C27.0215 43.8288 27.1273 43.6725 27.2607 43.5391C27.3942 43.4056 27.5505 43.3014 27.7295 43.2266C27.9085 43.1484 28.099 43.1094 28.3008 43.1094H29.5703V42.3379C29.5703 42.2174 29.5475 42.1051 29.502 42.001C29.4564 41.8936 29.3945 41.8008 29.3164 41.7227C29.2383 41.6445 29.1455 41.5827 29.0381 41.5371C28.9339 41.4915 28.8216 41.4688 28.7012 41.4688H28.3496C28.2292 41.4688 28.1152 41.4915 28.0078 41.5371C27.9036 41.5827 27.8125 41.6445 27.7344 41.7227C27.6562 41.8008 27.5944 41.8936 27.5488 42.001C27.5033 42.1051 27.4805 42.2174 27.4805 42.3379V42.5186L26.8799 42.4209V42.3721C26.8799 42.1702 26.9173 41.9798 26.9922 41.8008C27.0703 41.6217 27.1761 41.4655 27.3096 41.332C27.443 41.1986 27.5993 41.0944 27.7783 41.0195C27.9574 40.9414 28.1478 40.9023 28.3496 40.9023H28.7012C28.903 40.9023 29.0934 40.9414 29.2725 41.0195C29.4515 41.0944 29.6077 41.1986 29.7412 41.332C29.8747 41.4655 29.9788 41.6217 30.0537 41.8008C30.1318 41.9798 30.1709 42.1702 30.1709 42.3721V46H29.9707ZM29.5703 43.5781H28.3008C28.1803 43.5781 28.0664 43.6009 27.959 43.6465C27.8548 43.6921 27.7637 43.7555 27.6855 43.8369C27.6074 43.915 27.5456 44.0078 27.5 44.1152C27.4544 44.2194 27.4316 44.3317 27.4316 44.4521V44.6621C27.4316 44.7826 27.4544 44.8965 27.5 45.0039C27.5456 45.1081 27.6074 45.1992 27.6855 45.2773C27.7637 45.3555 27.8548 45.4173 27.959 45.4629C28.0664 45.5085 28.1803 45.5312 28.3008 45.5312H28.7012C28.8216 45.5312 28.9339 45.5085 29.0381 45.4629C29.1455 45.4173 29.2383 45.3555 29.3164 45.2773C29.3945 45.1992 29.4564 45.1081 29.502 45.0039C29.5475 44.8965 29.5703 44.7826 29.5703 44.6621V43.5781ZM31.5723 46V38.998H32.1729V46H31.5723ZM36.9189 44.6279C36.9189 44.8298 36.8799 45.0202 36.8018 45.1992C36.7269 45.3783 36.6227 45.5345 36.4893 45.668C36.3558 45.8014 36.1995 45.9072 36.0205 45.9854C35.8415 46.0602 35.651 46.0977 35.4492 46.0977H35.0488C34.847 46.0977 34.6566 46.0602 34.4775 45.9854C34.2985 45.9072 34.1423 45.8014 34.0088 45.668C33.8753 45.5345 33.7695 45.3783 33.6914 45.1992C33.6165 45.0202 33.5791 44.8298 33.5791 44.6279V42.3721C33.5791 42.1702 33.6165 41.9798 33.6914 41.8008C33.7695 41.6217 33.8753 41.4655 34.0088 41.332C34.1423 41.1986 34.2985 41.0944 34.4775 41.0195C34.6566 40.9414 34.847 40.9023 35.0488 40.9023H35.4492C35.651 40.9023 35.8415 40.9414 36.0205 41.0195C36.1995 41.0944 36.3558 41.1986 36.4893 41.332C36.6227 41.4655 36.7269 41.6217 36.8018 41.8008C36.8799 41.9798 36.9189 42.1702 36.9189 42.3721V43.5488H34.1797V44.6621C34.1797 44.7826 34.2025 44.8965 34.248 45.0039C34.2936 45.1081 34.3555 45.1992 34.4336 45.2773C34.5117 45.3555 34.6029 45.4173 34.707 45.4629C34.8145 45.5085 34.9284 45.5312 35.0488 45.5312H35.4492C35.5697 45.5312 35.682 45.5085 35.7861 45.4629C35.8936 45.4173 35.9863 45.3555 36.0645 45.2773C36.1426 45.1992 36.2044 45.1081 36.25 45.0039C36.2956 44.8965 36.3184 44.7826 36.3184 44.6621V44.3301L36.9189 44.4277V44.6279ZM36.3184 42.3379C36.3184 42.2174 36.2956 42.1051 36.25 42.001C36.2044 41.8936 36.1426 41.8008 36.0645 41.7227C35.9863 41.6445 35.8936 41.5827 35.7861 41.5371C35.682 41.4915 35.5697 41.4688 35.4492 41.4688H35.0488C34.9284 41.4688 34.8145 41.4915 34.707 41.5371C34.6029 41.5827 34.5117 41.6445 34.4336 41.7227C34.3555 41.8008 34.2936 41.8936 34.248 42.001C34.2025 42.1051 34.1797 42.2174 34.1797 42.3379V43.0801H36.3184V42.3379ZM40.8594 46V42.3379C40.8594 42.2174 40.8366 42.1051 40.791 42.001C40.7454 41.8936 40.6836 41.8008 40.6055 41.7227C40.5273 41.6445 40.4346 41.5827 40.3271 41.5371C40.223 41.4915 40.1107 41.4688 39.9902 41.4688H39.5898C39.4694 41.4688 39.3555 41.4915 39.248 41.5371C39.1439 41.5827 39.0527 41.6445 38.9746 41.7227C38.8965 41.8008 38.8346 41.8936 38.7891 42.001C38.7435 42.1051 38.7207 42.2174 38.7207 42.3379V46H38.1201V41H38.3203L38.6475 41.5078C38.7842 41.3223 38.9551 41.1758 39.1602 41.0684C39.3685 40.9577 39.5947 40.9023 39.8389 40.9023H39.9902C40.1921 40.9023 40.3825 40.9414 40.5615 41.0195C40.7406 41.0944 40.8968 41.1986 41.0303 41.332C41.1637 41.4655 41.2679 41.6217 41.3428 41.8008C41.4209 41.9798 41.46 42.1702 41.46 42.3721V46H40.8594ZM45.8008 46L45.4688 45.4922C45.332 45.6777 45.1611 45.8258 44.9561 45.9365C44.751 46.0439 44.5264 46.0977 44.2822 46.0977H44.1309C43.929 46.0977 43.7386 46.0602 43.5596 45.9854C43.3805 45.9072 43.2243 45.8014 43.0908 45.668C42.9574 45.5345 42.8516 45.3783 42.7734 45.1992C42.6986 45.0202 42.6611 44.8298 42.6611 44.6279V42.3721C42.6611 42.1702 42.6986 41.9798 42.7734 41.8008C42.8516 41.6217 42.9574 41.4655 43.0908 41.332C43.2243 41.1986 43.3805 41.0944 43.5596 41.0195C43.7386 40.9414 43.929 40.9023 44.1309 40.9023H44.2822C44.5068 40.9023 44.7152 40.9479 44.9072 41.0391C45.0993 41.1302 45.2637 41.2572 45.4004 41.4199V38.998H46.001V46H45.8008ZM45.4004 42.3379C45.4004 42.2174 45.3776 42.1051 45.332 42.001C45.2865 41.8936 45.2246 41.8008 45.1465 41.7227C45.0684 41.6445 44.9756 41.5827 44.8682 41.5371C44.764 41.4915 44.6517 41.4688 44.5312 41.4688H44.1309C44.0104 41.4688 43.8965 41.4915 43.7891 41.5371C43.6849 41.5827 43.5938 41.6445 43.5156 41.7227C43.4375 41.8008 43.3757 41.8936 43.3301 42.001C43.2845 42.1051 43.2617 42.2174 43.2617 42.3379V44.6621C43.2617 44.7826 43.2845 44.8965 43.3301 45.0039C43.3757 45.1081 43.4375 45.1992 43.5156 45.2773C43.5938 45.3555 43.6849 45.4173 43.7891 45.4629C43.8965 45.5085 44.0104 45.5312 44.1309 45.5312H44.5312C44.6517 45.5312 44.764 45.5085 44.8682 45.4629C44.9756 45.4173 45.0684 45.3555 45.1465 45.2773C45.2246 45.1992 45.2865 45.1081 45.332 45.0039C45.3776 44.8965 45.4004 44.7826 45.4004 44.6621V42.3379ZM50.3418 46L50.0098 45.502C49.873 45.681 49.7021 45.8258 49.4971 45.9365C49.292 46.0439 49.0674 46.0977 48.8232 46.0977H48.6719C48.4701 46.0977 48.2796 46.0602 48.1006 45.9854C47.9215 45.9072 47.7653 45.8014 47.6318 45.668C47.4984 45.5345 47.3926 45.3783 47.3145 45.1992C47.2396 45.0202 47.2021 44.8298 47.2021 44.6279V44.5791C47.2021 44.3773 47.2396 44.1868 47.3145 44.0078C47.3926 43.8288 47.4984 43.6725 47.6318 43.5391C47.7653 43.4056 47.9215 43.3014 48.1006 43.2266C48.2796 43.1484 48.4701 43.1094 48.6719 43.1094H49.9414V42.3379C49.9414 42.2174 49.9186 42.1051 49.873 42.001C49.8275 41.8936 49.7656 41.8008 49.6875 41.7227C49.6094 41.6445 49.5166 41.5827 49.4092 41.5371C49.305 41.4915 49.1927 41.4688 49.0723 41.4688H48.7207C48.6003 41.4688 48.4863 41.4915 48.3789 41.5371C48.2747 41.5827 48.1836 41.6445 48.1055 41.7227C48.0273 41.8008 47.9655 41.8936 47.9199 42.001C47.8743 42.1051 47.8516 42.2174 47.8516 42.3379V42.5186L47.251 42.4209V42.3721C47.251 42.1702 47.2884 41.9798 47.3633 41.8008C47.4414 41.6217 47.5472 41.4655 47.6807 41.332C47.8141 41.1986 47.9704 41.0944 48.1494 41.0195C48.3285 40.9414 48.5189 40.9023 48.7207 40.9023H49.0723C49.2741 40.9023 49.4645 40.9414 49.6436 41.0195C49.8226 41.0944 49.9788 41.1986 50.1123 41.332C50.2458 41.4655 50.3499 41.6217 50.4248 41.8008C50.5029 41.9798 50.542 42.1702 50.542 42.3721V46H50.3418ZM49.9414 43.5781H48.6719C48.5514 43.5781 48.4375 43.6009 48.3301 43.6465C48.2259 43.6921 48.1348 43.7555 48.0566 43.8369C47.9785 43.915 47.9167 44.0078 47.8711 44.1152C47.8255 44.2194 47.8027 44.3317 47.8027 44.4521V44.6621C47.8027 44.7826 47.8255 44.8965 47.8711 45.0039C47.9167 45.1081 47.9785 45.1992 48.0566 45.2773C48.1348 45.3555 48.2259 45.4173 48.3301 45.4629C48.4375 45.5085 48.5514 45.5312 48.6719 45.5312H49.0723C49.1927 45.5312 49.305 45.5085 49.4092 45.4629C49.5166 45.4173 49.6094 45.3555 49.6875 45.2773C49.7656 45.1992 49.8275 45.1081 49.873 45.0039C49.9186 44.8965 49.9414 44.7826 49.9414 44.6621V43.5781ZM53.2129 41.5713C53.0924 41.5713 52.9785 41.5941 52.8711 41.6396C52.7669 41.6852 52.6758 41.7471 52.5977 41.8252C52.5195 41.9033 52.4577 41.9961 52.4121 42.1035C52.3665 42.2077 52.3438 42.32 52.3438 42.4404V46H51.7432V41H51.9434L52.2705 41.5078C52.4072 41.3223 52.5781 41.1758 52.7832 41.0684C52.9915 40.9577 53.2178 40.9023 53.4619 40.9023H53.8135V41.5713H53.2129Z" fill="#0263F9"/>
<path fill-rule="evenodd" clip-rule="evenodd" d="M32.0624 12.5H32C31.3786 12.5 30.875 11.9964 30.875 11.375V11V9.12502C30.875 8.50361 31.3786 8 32 8H32.0624C32.6838 8 33.1875 8.50361 33.1875 9.12502V11V11.375C33.1875 11.9964 32.6838 12.5 32.0624 12.5ZM43.6875 12.5H43.625C43.0036 12.5 42.5 11.9964 42.5 11.375V11V9.12502C42.5 8.50361 43.0036 8 43.625 8H43.6874C44.3088 8 44.8124 8.50361 44.8125 9.12502V11V11.375C44.8125 11.9964 44.3089 12.5 43.6875 12.5ZM47 11H45.9374V11.375C45.9374 12.6157 44.9281 13.625 43.6874 13.625H43.625C42.3843 13.625 41.375 12.6157 41.375 11.375V11H34.3124V11.375C34.3124 12.6157 33.3031 13.625 32.0624 13.625H32C30.7593 13.625 29.75 12.6157 29.75 11.375V11H29C27.3433 11 26 12.3433 26 14V29C26 30.6567 27.3433 32 29 32H47C48.6567 32 50 30.6567 50 29V14C50 12.3433 48.6567 11 47 11ZM47 30.5C47.8276 30.5 48.5 29.8276 48.5 29V17H27.5V29C27.5 29.8276 28.1731 30.5 29 30.5H47ZM33.8439 20.75C33.8439 21.7683 33.0183 22.5939 32 22.5939C30.9817 22.5939 30.1561 21.7683 30.1561 20.75C30.1561 19.7317 30.9817 18.9061 32 18.9061C33.0183 18.9061 33.8439 19.7317 33.8439 20.75ZM38 22.5939C39.0183 22.5939 39.8439 21.7683 39.8439 20.75C39.8439 19.7317 39.0183 18.9061 38 18.9061C36.9817 18.9061 36.1561 19.7317 36.1561 20.75C36.1561 21.7683 36.9817 22.5939 38 22.5939ZM45.8439 20.75C45.8439 21.7683 45.0183 22.5939 44 22.5939C42.9817 22.5939 42.1561 21.7683 42.1561 20.75C42.1561 19.7317 42.9817 18.9061 44 18.9061C45.0183 18.9061 45.8439 19.7317 45.8439 20.75ZM32 28.5939C33.0183 28.5939 33.8439 27.7683 33.8439 26.75C33.8439 25.7317 33.0183 24.9061 32 24.9061C30.9817 24.9061 30.1561 25.7317 30.1561 26.75C30.1561 27.7683 30.9817 28.5939 32 28.5939ZM39.8439 26.75C39.8439 27.7683 39.0183 28.5939 38 28.5939C36.9817 28.5939 36.1561 27.7683 36.1561 26.75C36.1561 25.7317 36.9817 24.9061 38 24.9061C39.0183 24.9061 39.8439 25.7317 39.8439 26.75ZM44 28.5939C45.0183 28.5939 45.8439 27.7683 45.8439 26.75C45.8439 25.7317 45.0183 24.9061 44 24.9061C42.9817 24.9061 42.1561 25.7317 42.1561 26.75C42.1561 27.7683 42.9817 28.5939 44 28.5939Z" fill="#0263F9"/>
</g>
<defs>
<clipPath id="clip0_450_1509">
<rect width="75" height="49" fill="white"/>
</clipPath>
</defs>
</svg>
