<svg width="75" height="49" viewBox="0 0 75 49" fill="none" xmlns="http://www.w3.org/2000/svg">
<g clip-path="url(#clip0_484_244)">
<path d="M31.3057 46V42.8018H28.625V46H27.9951V38.998H28.625V42.2012H31.3057V38.998H31.9355V46H31.3057ZM36.584 44.6279C36.584 44.8298 36.5449 45.0202 36.4668 45.1992C36.3919 45.3783 36.2878 45.5345 36.1543 45.668C36.0208 45.8014 35.8646 45.9072 35.6855 45.9854C35.5065 46.0602 35.3161 46.0977 35.1143 46.0977H34.7139C34.512 46.0977 34.3216 46.0602 34.1426 45.9854C33.9635 45.9072 33.8073 45.8014 33.6738 45.668C33.5404 45.5345 33.4346 45.3783 33.3564 45.1992C33.2816 45.0202 33.2441 44.8298 33.2441 44.6279V42.3721C33.2441 42.1702 33.2816 41.9798 33.3564 41.8008C33.4346 41.6217 33.5404 41.4655 33.6738 41.332C33.8073 41.1986 33.9635 41.0944 34.1426 41.0195C34.3216 40.9414 34.512 40.9023 34.7139 40.9023H35.1143C35.3161 40.9023 35.5065 40.9414 35.6855 41.0195C35.8646 41.0944 36.0208 41.1986 36.1543 41.332C36.2878 41.4655 36.3919 41.6217 36.4668 41.8008C36.5449 41.9798 36.584 42.1702 36.584 42.3721V44.6279ZM35.9834 42.3379C35.9834 42.2174 35.9606 42.1051 35.915 42.001C35.8695 41.8936 35.8076 41.8008 35.7295 41.7227C35.6514 41.6445 35.5586 41.5827 35.4512 41.5371C35.347 41.4915 35.2347 41.4688 35.1143 41.4688H34.7139C34.5934 41.4688 34.4795 41.4915 34.3721 41.5371C34.2679 41.5827 34.1768 41.6445 34.0986 41.7227C34.0205 41.8008 33.9587 41.8936 33.9131 42.001C33.8675 42.1051 33.8447 42.2174 33.8447 42.3379V44.6621C33.8447 44.7826 33.8675 44.8965 33.9131 45.0039C33.9587 45.1081 34.0205 45.1992 34.0986 45.2773C34.1768 45.3555 34.2679 45.4173 34.3721 45.4629C34.4795 45.5085 34.5934 45.5312 34.7139 45.5312H35.1143C35.2347 45.5312 35.347 45.5085 35.4512 45.4629C35.5586 45.4173 35.6514 45.3555 35.7295 45.2773C35.8076 45.1992 35.8695 45.1081 35.915 45.0039C35.9606 44.8965 35.9834 44.7826 35.9834 44.6621V42.3379ZM43.0635 46V42.3379C43.0635 42.2174 43.0407 42.1051 42.9951 42.001C42.9495 41.8936 42.8877 41.8008 42.8096 41.7227C42.7314 41.6445 42.6387 41.5827 42.5312 41.5371C42.4271 41.4915 42.3148 41.4688 42.1943 41.4688H41.8965C41.776 41.4688 41.6621 41.4915 41.5547 41.5371C41.4505 41.5827 41.3577 41.6445 41.2764 41.7227C41.1982 41.8008 41.1364 41.8936 41.0908 42.001C41.0452 42.1051 41.0225 42.2174 41.0225 42.3379V46H40.4268V42.3379C40.4268 42.2174 40.404 42.1051 40.3584 42.001C40.3128 41.8936 40.2493 41.8008 40.168 41.7227C40.0898 41.6445 39.9971 41.5827 39.8896 41.5371C39.7855 41.4915 39.6732 41.4688 39.5527 41.4688H39.2549C39.1344 41.4688 39.0205 41.4915 38.9131 41.5371C38.8089 41.5827 38.7178 41.6445 38.6396 41.7227C38.5615 41.8008 38.4997 41.8936 38.4541 42.001C38.4085 42.1051 38.3857 42.2174 38.3857 42.3379V46H37.7852V41H37.9854L38.3125 41.5078C38.4492 41.3223 38.6201 41.1758 38.8252 41.0684C39.0335 40.9577 39.2598 40.9023 39.5039 40.9023H39.5527C39.8359 40.9023 40.0915 40.9723 40.3193 41.1123C40.5472 41.2523 40.723 41.4378 40.8467 41.6689C40.9085 41.555 40.985 41.4508 41.0762 41.3564C41.1673 41.262 41.2682 41.1823 41.3789 41.1172C41.4896 41.0488 41.61 40.9967 41.7402 40.9609C41.8704 40.9219 42.0055 40.9023 42.1455 40.9023H42.1943C42.3962 40.9023 42.5866 40.9414 42.7656 41.0195C42.9447 41.0944 43.1009 41.1986 43.2344 41.332C43.3678 41.4655 43.472 41.6217 43.5469 41.8008C43.625 41.9798 43.6641 42.1702 43.6641 42.3721V46H43.0635ZM48.2051 44.6279C48.2051 44.8298 48.166 45.0202 48.0879 45.1992C48.013 45.3783 47.9089 45.5345 47.7754 45.668C47.6419 45.8014 47.4857 45.9072 47.3066 45.9854C47.1276 46.0602 46.9372 46.0977 46.7354 46.0977H46.335C46.1331 46.0977 45.9427 46.0602 45.7637 45.9854C45.5846 45.9072 45.4284 45.8014 45.2949 45.668C45.1615 45.5345 45.0557 45.3783 44.9775 45.1992C44.9027 45.0202 44.8652 44.8298 44.8652 44.6279V42.3721C44.8652 42.1702 44.9027 41.9798 44.9775 41.8008C45.0557 41.6217 45.1615 41.4655 45.2949 41.332C45.4284 41.1986 45.5846 41.0944 45.7637 41.0195C45.9427 40.9414 46.1331 40.9023 46.335 40.9023H46.7354C46.9372 40.9023 47.1276 40.9414 47.3066 41.0195C47.4857 41.0944 47.6419 41.1986 47.7754 41.332C47.9089 41.4655 48.013 41.6217 48.0879 41.8008C48.166 41.9798 48.2051 42.1702 48.2051 42.3721V43.5488H45.4658V44.6621C45.4658 44.7826 45.4886 44.8965 45.5342 45.0039C45.5798 45.1081 45.6416 45.1992 45.7197 45.2773C45.7979 45.3555 45.889 45.4173 45.9932 45.4629C46.1006 45.5085 46.2145 45.5312 46.335 45.5312H46.7354C46.8558 45.5312 46.9681 45.5085 47.0723 45.4629C47.1797 45.4173 47.2725 45.3555 47.3506 45.2773C47.4287 45.1992 47.4906 45.1081 47.5361 45.0039C47.5817 44.8965 47.6045 44.7826 47.6045 44.6621V44.3301L48.2051 44.4277V44.6279ZM47.6045 42.3379C47.6045 42.2174 47.5817 42.1051 47.5361 42.001C47.4906 41.8936 47.4287 41.8008 47.3506 41.7227C47.2725 41.6445 47.1797 41.5827 47.0723 41.5371C46.9681 41.4915 46.8558 41.4688 46.7354 41.4688H46.335C46.2145 41.4688 46.1006 41.4915 45.9932 41.5371C45.889 41.5827 45.7979 41.6445 45.7197 41.7227C45.6416 41.8008 45.5798 41.8936 45.5342 42.001C45.4886 42.1051 45.4658 42.2174 45.4658 42.3379V43.0801H47.6045V42.3379Z" fill="#0263F9"/>
<path fill-rule="evenodd" clip-rule="evenodd" d="M45 27H39V24H45V27ZM49.6485 21.842L47.6002 19.8505V14.5002H44.0004V16.3506L38.8489 11.3421C38.3798 10.886 37.6202 10.886 37.1522 11.3421L26.3526 21.842C26.0082 22.1756 25.905 22.6773 26.0922 23.1136C26.277 23.55 26.715 23.8334 27.201 23.8334H28.4009V32H32.0008V26.1667H35.6007V32H47.6002V23.8334H48.8002C49.285 23.8334 49.7229 23.55 49.9077 23.1136C50.0949 22.6773 49.9917 22.1756 49.6485 21.842Z" fill="#0263F9"/>
</g>
<defs>
<clipPath id="clip0_484_244">
<rect width="75" height="49" fill="white"/>
</clipPath>
</defs>
</svg>
